<svg overflow="hidden" xmlns="http://www.w3.org/2000/svg" xmlns:xlink="http://www.w3.org/1999/xlink" viewBox="0 0 594 111.12"><defs><style>.cls-1{fill:url(#Alteris_Gradient);}.cls-2{fill:url(#Alteris_Gradient-2);}.cls-3{fill:url(#linear-gradient);}.cls-4{fill:url(#Alteris_Gradient-3);}.cls-5{fill:url(#Alteris_Gradient-4);}.cls-6{fill:url(#Alteris_Gradient-5);}.cls-7{fill:url(#Alteris_Gradient-6);}.cls-8{fill:none;}</style><linearGradient id="Alteris_Gradient" x1="1.21" y1="53.96" x2="594.72" y2="62.52" gradientUnits="userSpaceOnUse"><stop offset="0" stop-color="#c8b06e"/><stop offset="1" stop-color="#997847"/></linearGradient><linearGradient id="Alteris_Gradient-2" x1="1.23" y1="52.27" x2="594.75" y2="60.83" xlink:href="#Alteris_Gradient"/><linearGradient id="linear-gradient" x1="-6.44" y1="48.55" x2="587.08" y2="57.12" gradientUnits="userSpaceOnUse"><stop offset="0" stop-color="#c8b06e"/><stop offset="1" stop-color="#997847"/></linearGradient><linearGradient id="Alteris_Gradient-3" x1="1.25" y1="51.03" x2="594.76" y2="59.59" xlink:href="#Alteris_Gradient"/><linearGradient id="Alteris_Gradient-4" x1="1.21" y1="54.27" x2="594.72" y2="62.84" xlink:href="#Alteris_Gradient"/><linearGradient id="Alteris_Gradient-5" x1="-10.35" y1="47.6" x2="583.16" y2="56.16" xlink:href="#Alteris_Gradient"/><linearGradient id="Alteris_Gradient-6" x1="31.74" y1="49.93" x2="574.45" y2="57.76" xlink:href="#Alteris_Gradient"/></defs><title>akteris-1</title><g id="Layer_2" data-name="Layer 2"><g id="Header"><path class="cls-1" d="M88.16,106.57h16.55V4.55H88.16V2.46h48V4.55H119.63v102h26.55q13.13,0,20.58-8.2T177.65,76h1.64v32.67H88.16Z"/><path class="cls-2" d="M203.12,106.57V4.55h-8.66a48.55,48.55,0,0,0-6.71.52A19.31,19.31,0,0,0,180.22,8a25.85,25.85,0,0,0-7.31,7.53q-3.51,5.15-6,14.25h-1.64V2.46h90.69v27.3h-1.64q-2.55-9.1-6.05-14.25A25.83,25.83,0,0,0,240.93,8a19.29,19.29,0,0,0-7.54-2.91,48.43,48.43,0,0,0-6.71-.52H218v102h16.56v2.09H203.12"/><path class="cls-3" d="M455.22,106.57h16.56V4.55H455.22V2.46h48V4.55H486.69v102h16.56v2.09h-48Z"/><path class="cls-4" d="M351.69,84.64a36.39,36.39,0,0,1-5.07,10.07,31.75,31.75,0,0,1-8.88,8.35q-5.44,3.51-13.65,3.51H295.9V52.73H308a17.94,17.94,0,0,1,8.73,1.86,14.76,14.76,0,0,1,5.37,5,25.89,25.89,0,0,1,3.13,7.16c.75,2.68,1.47,5.47,2.17,8.35H329V28.71h-1.64a83.16,83.16,0,0,1-3.36,11,20,20,0,0,1-4.18,6.72A12.63,12.63,0,0,1,314,49.74a33.37,33.37,0,0,1-8.35.9h-9.7V4.55h24.76A32.29,32.29,0,0,1,331.1,6a19.75,19.75,0,0,1,7.46,4.55,28.13,28.13,0,0,1,5.37,7.46,76.14,76.14,0,0,1,4.18,10.21h1.64V2.46H264.43V4.55H281V108.66h74.43V76h-1.65A52,52,0,0,1,351.69,84.64Z"/><polygon class="cls-5" points="44.45 0.5 40.89 0.5 0.89 106.58 0 108.66 19.7 108.66 19.7 106.58 3.26 106.58 36 20.2 69.79 108.66 97.94 108.66 97.94 106.58 84.75 106.58 44.45 0.5"/><path class="cls-6" d="M578.54,63.39a25.81,25.81,0,0,0-7-7.9A32.16,32.16,0,0,0,563.1,51q-4.32-1.48-7.16-2.39L537.9,43q-3.89-1.2-7.68-2.76a31,31,0,0,1-6.87-3.88,18.87,18.87,0,0,1-5-5.67,15.91,15.91,0,0,1-1.94-8.13,18.06,18.06,0,0,1,2.46-9.84,20.14,20.14,0,0,1,6.19-6.27,25,25,0,0,1,8-3.35,36.23,36.23,0,0,1,7.91-1A25.91,25.91,0,0,1,552.29,4.4a26.18,26.18,0,0,1,8.28,6.12,32,32,0,0,1,5.59,8.8,44.55,44.55,0,0,1,3.06,10.36H571v-27h-2.09a10.34,10.34,0,0,1-1.86,2.62,4.63,4.63,0,0,1-2.61.52,10,10,0,0,1-4.11-.9l-4.54-2a39.21,39.21,0,0,0-6-2A36.21,36.21,0,0,0,541,0a35.66,35.66,0,0,0-13.2,2.39A31.37,31.37,0,0,0,517.46,9a29.17,29.17,0,0,0-6.71,9.92,32.15,32.15,0,0,0-2.39,12.45q0,10.29,6.19,16.41t18.28,9.84L550,62.79a45.72,45.72,0,0,1,6.64,2.54,27.56,27.56,0,0,1,6.48,4.25A21.57,21.57,0,0,1,568,75.92a19.23,19.23,0,0,1,1.94,9,29.06,29.06,0,0,1-1.2,7.83,21.69,21.69,0,0,1-4.17,7.9,22.58,22.58,0,0,1-8.06,6q-5.07,2.4-13,2.39-2.84,0-6-.15a33.94,33.94,0,0,1-6.71-1c-.77-.2-1.54-.45-2.31-.72v2.69c.29.06.61.14.9.19,1.39.25,2.78.47,4.17.67a40.38,40.38,0,0,0,4.48.37c1.59,0,3.43.08,5.51.08a40.87,40.87,0,0,0,15.81-2.91,36.81,36.81,0,0,0,11.94-7.76,33.23,33.23,0,0,0,7.53-11.18,34.75,34.75,0,0,0,2.61-13.35Q581.45,68.32,578.54,63.39Z"/><path class="cls-7" d="M445.11,103.31a22.85,22.85,0,0,1-2.81-7,37.27,37.27,0,0,1-.82-6.23q-.23-3.69-.44-7.7t-.6-7.78a34.58,34.58,0,0,0-1.26-6.74,17.22,17.22,0,0,0-5-8.22,30.82,30.82,0,0,0-7.78-5.12,38.57,38.57,0,0,0-8.3-2.74Q414,51,411.63,50.71v-.29q8.58-1,13.78-4.08a26.6,26.6,0,0,0,7.92-6.67,19.3,19.3,0,0,0,3.56-7.11,26.24,26.24,0,0,0,.81-5.7,24.3,24.3,0,0,0-2.15-9.49,22.75,22.75,0,0,0-7.33-9,25.7,25.7,0,0,0-12.45-5.56C411.33,2.14,358,2.3,358,2.3v2h16.45V107.75H405.7v-2.08H389.25V65.6h0V36.26h0V4.34A39.67,39.67,0,0,1,393.92,4c1.83,0,3.63-.07,5.41-.07a42.31,42.31,0,0,1,7.78.74,17.21,17.21,0,0,1,7.11,3.11,16.72,16.72,0,0,1,5.18,7q2,4.67,2,12.37a39.86,39.86,0,0,1-1.33,11.26,17.34,17.34,0,0,1-3.78,7,13.17,13.17,0,0,1-5.85,3.63,24.31,24.31,0,0,1-5.3,1v2.18c1.44,0,3.05.16,4.86.35a16.13,16.13,0,0,1,6.59,2.3,16.47,16.47,0,0,1,5.56,6.08q2.36,4.14,3,11.55l1,13.48a56.11,56.11,0,0,0,1.55,9.86,18.49,18.49,0,0,0,3.48,7.11,14.6,14.6,0,0,0,6.3,4.37,28.11,28.11,0,0,0,9.85,1.48,23.21,23.21,0,0,0,3.63-.13v-2.09A6.79,6.79,0,0,1,445.11,103.31Z"/></g></g></svg>